<?xml version="1.0" standalone="no"?>
<!DOCTYPE svg PUBLIC "-//W3C//DTD SVG 20010904//EN"
 "http://www.w3.org/TR/2001/REC-SVG-20010904/DTD/svg10.dtd">
<svg version="1.0" xmlns="http://www.w3.org/2000/svg"
 width="1024.000000pt" height="1024.000000pt" viewBox="0 0 1024.000000 1024.000000"
 preserveAspectRatio="xMidYMid meet">

<g transform="translate(0.000000,1024.000000) scale(0.100000,-0.100000)"
fill="#000000" stroke="none">
<path d="M5013 7078 c-159 -143 -953 -937 -963 -962 -23 -62 -6 -92 124 -218
67 -65 131 -121 144 -124 58 -16 90 3 228 138 l134 131 0 -464 c0 -472 -8
-617 -38 -674 -59 -115 -167 -173 -269 -146 -108 29 -193 131 -193 230 1 85
55 172 135 214 51 27 164 29 212 4 18 -10 34 -17 38 -17 3 0 5 95 5 210 l0
210 -404 0 -403 0 -7 -32 c-12 -58 5 -666 21 -743 23 -118 75 -207 178 -311
75 -77 104 -98 175 -132 139 -65 253 -82 390 -58 201 36 391 178 478 356 71
145 72 154 72 605 l0 400 -185 185 -185 185 210 210 210 210 348 -347 c191
-190 357 -351 369 -357 12 -6 38 -11 57 -11 32 0 49 12 158 115 68 64 128 126
135 138 17 30 16 72 -1 105 -16 30 -966 970 -1000 989 -11 7 -42 12 -68 13
-44 0 -53 -5 -105 -52z"/>
<path d="M5695 5626 c-199 -38 -369 -165 -455 -341 -49 -101 -70 -187 -70
-295 0 -263 135 -485 361 -593 109 -53 182 -70 295 -69 293 1 553 204 630 492
21 79 24 234 5 310 -7 30 -31 93 -53 139 -74 155 -243 297 -407 343 -89 25
-219 31 -306 14z m249 -440 c125 -73 151 -241 53 -352 -50 -57 -105 -83 -175
-84 -216 -1 -316 257 -159 408 48 46 99 63 174 58 44 -2 75 -11 107 -30z"/>
<path d="M5871 3986 c-87 -48 -52 -176 49 -176 102 0 139 129 50 175 -35 18
-67 19 -99 1z"/>
<path d="M4180 3840 c0 -71 -2 -130 -5 -130 -3 0 -24 9 -46 21 -130 66 -294 6
-367 -135 -22 -44 -26 -64 -27 -141 0 -73 4 -99 23 -140 74 -161 255 -223 386
-132 23 16 30 17 37 6 5 -8 9 -20 9 -26 0 -9 23 -13 80 -13 70 0 81 2 90 21 8
15 10 130 4 410 l-7 389 -88 0 -89 0 0 -130z m-73 -277 c126 -59 78 -253 -62
-253 -75 0 -135 59 -135 133 0 105 100 166 197 120z"/>
<path d="M6170 3816 l0 -75 -42 -3 -43 -3 -3 -82 -3 -83 45 0 44 0 4 -143 c3
-136 4 -146 30 -184 45 -68 88 -88 193 -88 l90 0 3 78 3 77 -35 0 c-40 0 -87
16 -98 33 -4 7 -8 60 -8 119 l0 107 68 3 67 3 3 83 3 82 -76 0 -75 0 0 75 0
75 -85 0 -85 0 0 -74z"/>
<path d="M4665 3750 c-120 -31 -199 -109 -230 -228 -37 -139 31 -283 167 -353
29 -15 67 -24 120 -27 106 -6 165 16 239 88 67 66 89 122 89 225 0 60 -5 82
-31 134 -65 129 -214 197 -354 161z m149 -191 c104 -82 52 -249 -78 -249 -53
0 -100 32 -120 80 -20 50 -20 60 1 111 9 24 29 49 47 60 43 26 115 25 150 -2z"/>
<path d="M5336 3744 c-92 -29 -147 -78 -196 -174 -35 -67 -33 -175 4 -252 93
-197 366 -239 518 -81 57 59 78 114 78 208 0 95 -25 160 -85 220 -79 79 -215
112 -319 79z m171 -181 c35 -23 53 -65 53 -123 0 -43 -5 -55 -33 -87 -29 -31
-41 -37 -88 -40 -69 -6 -118 23 -137 82 -43 132 91 242 205 168z"/>
<path d="M5837 3733 c-4 -3 -7 -134 -7 -290 l0 -283 90 0 90 0 0 274 c0 151
-3 281 -6 290 -5 13 -22 16 -83 16 -43 0 -81 -3 -84 -7z"/>
</g>
</svg>
