<?xml version="1.0" standalone="no"?>
<!DOCTYPE svg PUBLIC "-//W3C//DTD SVG 20010904//EN"
 "http://www.w3.org/TR/2001/REC-SVG-20010904/DTD/svg10.dtd">
<svg version="1.0" xmlns="http://www.w3.org/2000/svg"
 width="1024.000000pt" height="1024.000000pt" viewBox="0 0 1024.000000 1024.000000"
 preserveAspectRatio="xMidYMid meet">

<g transform="translate(0.000000,1024.000000) scale(0.100000,-0.100000)"
fill="#000000" stroke="none">
<path d="M6815 6091 c-161 -73 -200 -286 -74 -409 53 -52 94 -67 184 -67 69 0
86 4 127 28 184 108 163 369 -35 452 -50 21 -152 19 -202 -4z"/>
<path d="M3065 6071 l-100 -6 -3 -303 c-1 -167 -6 -302 -10 -300 -154 80 -251
108 -373 108 -338 -1 -604 -231 -675 -584 -33 -160 0 -352 83 -496 60 -103
181 -219 282 -269 208 -105 407 -107 620 -6 40 19 75 35 77 35 2 0 4 -18 4
-40 0 -29 5 -42 19 -50 29 -15 434 -13 449 2 9 9 12 236 12 959 0 854 -2 947
-16 953 -18 7 -218 5 -369 -3z m-267 -952 c111 -55 172 -152 172 -274 0 -73
-25 -137 -76 -194 -60 -67 -127 -95 -224 -95 -94 0 -163 28 -221 91 -60 65
-79 114 -79 204 0 65 4 85 31 137 52 104 145 161 265 162 59 0 81 -5 132 -31z"/>
<path d="M7462 5888 c-8 -8 -12 -59 -12 -170 l0 -158 -89 0 c-72 0 -90 -3 -95
-16 -12 -31 -7 -399 6 -412 7 -7 44 -12 95 -12 l83 0 0 -222 c1 -290 9 -351
60 -455 70 -143 193 -243 341 -278 94 -22 461 -22 483 1 14 13 16 47 16 212 0
108 -5 204 -10 212 -7 11 -33 15 -122 15 -99 0 -118 3 -153 23 -22 13 -52 39
-65 59 -25 36 -25 40 -25 232 l0 196 177 5 c97 3 180 8 184 13 9 9 5 409 -4
419 -4 4 -86 9 -182 10 l-175 3 -5 165 -5 165 -245 3 c-183 2 -249 -1 -258
-10z"/>
<path d="M4090 5549 c-258 -67 -467 -284 -525 -545 -25 -110 -16 -282 19 -383
114 -327 431 -529 770 -491 306 35 563 262 630 557 103 456 -245 885 -718 882
-66 0 -127 -7 -176 -20z m305 -443 c184 -82 225 -335 75 -469 -61 -56 -102
-71 -195 -71 -88 0 -133 17 -199 75 -116 101 -118 300 -5 410 88 86 208 106
324 55z"/>
<path d="M5671 5559 c-244 -48 -454 -229 -541 -469 -73 -199 -57 -402 46 -587
133 -238 367 -373 644 -374 167 0 288 39 426 136 264 187 370 533 258 834 -34
90 -123 220 -197 285 -75 68 -214 139 -321 166 -84 21 -232 25 -315 9z m265
-451 c111 -52 167 -141 167 -264 -1 -88 -31 -153 -99 -213 -166 -146 -425 -57
-474 162 -18 83 15 191 77 253 88 88 221 113 329 62z"/>
<path d="M7030 5458 c-52 -51 -159 -154 -238 -228 l-142 -135 0 -453 c0 -293
4 -460 10 -473 10 -18 24 -19 244 -19 185 0 236 3 245 14 8 9 10 200 9 697 -3
599 -5 684 -18 686 -8 2 -58 -39 -110 -89z"/>
</g>
</svg>
